<svg xmlns="http://www.w3.org/2000/svg" width="29" height="28" viewBox="0 0 29 28" fill="none">
<path fill-rule="evenodd" clip-rule="evenodd" d="M28.6917 13.9623C28.6917 21.6849 22.3354 27.9426 14.491 27.9426C6.66495 27.9426 0.308594 21.6849 0.308594 13.9623C0.308594 6.23964 6.66495 3.91048e-05 14.491 3.91048e-05C22.3538 -0.0180467 28.6917 6.23964 28.6917 13.9623Z" fill="#1B8F43"/>
<path fill-rule="evenodd" clip-rule="evenodd" d="M23.9698 10.8515H20.8283V7.74079H17.6685V4.63003H11.3489V7.74079H8.1891V10.8515H5.0293V17.0731H8.1891V20.1838H11.3489V23.2946H17.6685V20.1838H20.8283V17.0731H23.9698V10.8515Z" fill="#FFF200"/>
<path fill-rule="evenodd" clip-rule="evenodd" d="M22.4084 12.4067H19.2486V9.29598H16.0888V6.18522H12.929V9.29598H9.76918V12.4067H6.60938V15.5175H9.76918V18.6283H12.929V21.7209H16.0888V18.6283H19.2486V15.5175H22.4084V12.4067Z" fill="white"/>
<path fill-rule="evenodd" clip-rule="evenodd" d="M19.2489 12.407H16.0891V9.29629H12.9293V12.407H9.76953V15.5178H12.9293V18.6286H16.0891V15.5178H19.2489V12.407Z" fill="#ED1C24"/>
</svg>